{
	"asset":{
		"version":"2.0",
		"generator":"Created using the official Cinema 4D glTF Exporter 1.000x284978"
	},
	"textures":[{
		"sampler":0,
		"source":0
	},
	{
		"sampler":1,
		"source":1
	}],
	"scenes":[{
		"nodes":[0,
		1]
	}],
	"nodes":[{
		"name":"Camera",
		"scale":[1.0,
		1.0,
		1.0],
		"translation":[-0.19059082865715028,
		0.7426620125770569,
		5.815184593200684],
		"rotation":[0.08910095691680908,
		-0.004443170502781868,
		-0.0003974756400566548,
		-0.9960126280784607],
		"camera":0
	},
	{
		"name":"胃",
		"scale":[1.0,
		1.0,
		1.0],
		"translation":[0.0,
		0.0,
		0.0],
		"rotation":[0.0,
		0.0,
		0.0,
		-1.0],
		"mesh":0
	}],
	"samplers":[{
		"magFilter":9729,
		"minFilter":9729,
		"wrapS":10497,
		"wrapT":10497
	},
	{
		"magFilter":9729,
		"minFilter":9729,
		"wrapS":10497,
		"wrapT":10497
	}],
	"meshes":[{
		"name":"胃",
		"primitives":[{
			"attributes":{
				"POSITION":1,
				"NORMAL":2,
				"TEXCOORD_0":3
			},
			"indices":0,
			"material":0
		}]
	}],
	"cameras":[{
		"type":"perspective",
		"perspective":{
			"znear":0.009999999776482582,
			"zfar":10000000000.0,
			"aspectRatio":1.7777777910232545,
			"yfov":0.5483348965644836
		}
	}],
	"accessors":[{
		"bufferView":0,
		"type":"SCALAR",
		"componentType":5123,
		"count":6144,
		"byteOffset":0,
		"min":[0],
		"max":[1221]
	},
	{
		"bufferView":1,
		"type":"VEC3",
		"componentType":5126,
		"count":1222,
		"byteOffset":0,
		"min":[-1.3583154678344727,
		-1.0453410148620606,
		-0.35589849948883059],
		"max":[0.6924173831939697,
		1.0309844017028809,
		0.3923853039741516]
	},
	{
		"bufferView":1,
		"type":"VEC3",
		"componentType":5126,
		"count":1222,
		"byteOffset":12,
		"min":[-0.9990655779838562,
		-0.9989482164382935,
		-0.998801589012146],
		"max":[0.9848648309707642,
		0.9997348189353943,
		0.9986825585365295]
	},
	{
		"bufferView":1,
		"type":"VEC2",
		"componentType":5126,
		"count":1222,
		"byteOffset":24,
		"min":[0.021257499232888223,
		0.4104524850845337],
		"max":[0.49810999631881716,
		0.7403149604797363]
	}],
	"bufferViews":[{
		"buffer":0,
		"byteOffset":0,
		"byteLength":12288,
		"target":34963
	},
	{
		"buffer":0,
		"byteOffset":12288,
		"byteLength":39104,
		"target":34962,
		"byteStride":32
	}],
	"buffers":[{
		"uri":"data:application/octet-stream;base64,",
		"byteLength":51392
	}],
	"images":[{
		"uri":"data:image/jpeg;base64,"
	},
	{
		"uri":"data:image/jpeg;base64,"
	}],
	"materials":[{
		"pbrMetallicRoughness":{
			"baseColorTexture":{
				"index":0
			},
			"baseColorFactor":[1.0,
			1.0,
			1.0,
			1.0],
			"metallicFactor":1.0,
			"roughnessFactor":1.0
		},
		"normalTexture":{
			"index":1,
			"scale":0.29999998211860659
		},
		"emissiveFactor":[0.0,
		0.0,
		0.0],
		"alphaMode":"OPAQUE",
		"doubleSided":true,
		"name":"胃_0"
	}]
}